<?xml version="1.0" standalone="no"?>
<!DOCTYPE svg PUBLIC "-//W3C//DTD SVG 20010904//EN"
 "http://www.w3.org/TR/2001/REC-SVG-20010904/DTD/svg10.dtd">
<svg version="1.0" xmlns="http://www.w3.org/2000/svg"
 width="1000.000000pt" height="1000.000000pt" viewBox="0 0 1000.000000 1000.000000"
 preserveAspectRatio="xMidYMid meet">
<metadata>
Created by potrace 1.14, written by Peter Selinger 2001-2017
</metadata>
<g transform="translate(0.000000,1000.000000) scale(0.100000,-0.100000)"
fill="#000000" stroke="none">
<path d="M110 5000 l0 -1027 4890 0 4890 0 0 1027 0 1027 -4890 0 -4890 0 0
-1027z m9601 845 c0 -5 1 -390 2 -855 l2 -845 -4712 0 c-2592 0 -4713 2 -4714
5 0 3 -1 388 -2 855 l-2 850 4713 0 c3134 0 4712 -3 4713 -10z"/>
<path d="M848 5565 c-2 -2 -17 -6 -34 -9 -70 -13 -196 -91 -177 -110 3 -3 1
-6 -5 -6 -12 0 -42 -41 -46 -62 -1 -7 -4 -17 -8 -23 -10 -17 -2 -163 10 -178
7 -7 9 -16 7 -19 -10 -10 112 -131 124 -124 6 4 11 2 11 -3 0 -6 27 -24 61
-41 34 -16 68 -35 77 -42 13 -11 14 -11 7 2 -7 13 -6 13 11 0 25 -21 104 -63
104 -56 0 3 20 -14 45 -37 51 -47 75 -104 68 -157 -3 -19 -5 -41 -6 -47 0 -14
-66 -77 -84 -80 -7 -2 -29 -6 -50 -11 -53 -12 -184 -4 -200 11 -3 4 -17 7 -29
7 -13 0 -26 5 -29 10 -4 6 -10 8 -15 5 -5 -3 -11 -1 -15 5 -3 5 -15 10 -26 10
-13 0 -18 4 -13 12 5 8 2 9 -9 5 -10 -4 -17 -1 -17 5 0 33 -10 -6 -16 -62 -3
-36 -8 -68 -10 -71 -5 -9 77 -42 84 -35 3 3 10 2 16 -3 19 -16 96 -25 206 -25
86 0 116 4 168 23 34 13 62 27 62 32 0 5 4 8 9 6 14 -3 81 62 81 79 0 8 4 14
9 14 5 0 16 20 24 44 21 63 11 216 -14 216 -5 0 -8 3 -7 8 3 15 -17 46 -45 71
-16 14 -36 34 -45 44 -9 9 -20 17 -25 17 -5 0 -21 9 -36 19 -15 11 -34 21 -42
23 -8 2 -16 5 -19 8 -7 8 -112 58 -129 62 -8 2 -23 10 -33 18 -10 8 -22 15
-26 15 -12 -1 -74 59 -87 85 -17 34 -11 136 9 156 9 8 16 20 16 25 0 6 5 7 10
4 6 -3 10 -3 10 2 0 18 65 35 138 35 95 0 126 -6 206 -41 l62 -28 2 31 c1 17
4 45 6 62 2 17 1 36 -3 42 -7 11 -91 45 -91 37 0 -3 -12 1 -27 7 -26 10 -216
21 -225 13z"/>
<path d="M1700 5554 c-75 -20 -135 -57 -198 -121 -49 -50 -107 -152 -117 -203
-2 -11 -6 -24 -9 -28 -23 -37 -27 -318 -6 -372 1 -3 2 -8 1 -12 -2 -14 42
-123 53 -130 6 -4 8 -8 3 -8 -15 0 23 -57 78 -115 31 -33 53 -53 49 -45 -4 8
4 3 18 -11 40 -42 130 -71 230 -75 48 -1 90 2 94 7 3 5 9 7 13 5 12 -8 81 14
81 25 0 6 5 7 10 4 6 -3 10 -1 10 5 0 6 4 9 10 5 5 -3 18 3 29 14 11 11 21 17
24 15 10 -11 107 110 135 168 47 98 65 179 66 303 0 113 -6 172 -22 215 -5 14
-9 27 -9 30 2 14 -37 100 -45 100 -5 0 -7 4 -4 9 14 23 -152 189 -175 175 -5
-3 -9 -1 -9 4 0 5 -8 12 -17 16 -10 3 -31 11 -48 17 -49 17 -184 19 -245 3z
m248 -151 c28 -13 57 -33 63 -44 5 -11 15 -16 21 -13 7 4 8 3 4 -5 -4 -6 0
-14 8 -17 9 -3 13 -10 10 -15 -3 -5 2 -12 10 -15 9 -3 13 -10 10 -15 -3 -5 0
-9 5 -9 6 0 10 -3 9 -7 -3 -14 13 -73 21 -73 4 0 7 -8 7 -17 1 -10 5 -34 9
-53 7 -35 8 -177 1 -235 -4 -34 -9 -51 -38 -120 -11 -27 -20 -55 -21 -62 0 -7
-4 -10 -9 -7 -4 3 -8 1 -8 -5 0 -14 -77 -91 -84 -84 -3 4 -6 1 -6 -6 0 -7 -4
-10 -9 -6 -5 3 -12 1 -15 -4 -14 -22 -133 -32 -193 -15 -23 6 -44 9 -47 6 -4
-3 -6 0 -6 6 0 6 -9 13 -19 17 -10 3 -31 18 -47 33 -15 15 -24 20 -19 12 4 -8
5 -12 1 -8 -4 3 -6 8 -4 10 1 2 -7 17 -18 33 -45 64 -58 96 -75 190 -17 95
-10 265 12 308 6 9 7 21 4 26 -3 5 -2 11 2 13 5 1 19 25 32 51 42 83 110 139
183 152 18 4 34 7 35 9 11 10 128 -10 171 -31z"/>
<path d="M7025 5555 c-45 -14 -145 -62 -145 -71 0 -3 5 -2 12 2 7 4 8 3 4 -4
-4 -7 -13 -12 -21 -12 -14 0 -52 -46 -57 -71 -2 -8 -7 -17 -12 -21 -11 -7 -17
-158 -8 -173 4 -5 7 -12 8 -15 7 -36 20 -63 37 -75 12 -8 18 -15 13 -15 -5 0
4 -10 20 -22 16 -13 32 -22 37 -20 5 1 6 -2 2 -7 -3 -6 4 -15 16 -21 17 -10
20 -9 13 2 -4 7 5 1 21 -14 15 -16 36 -28 46 -28 10 0 21 -5 24 -10 4 -6 11
-8 16 -5 5 4 9 2 9 -3 0 -9 53 -36 65 -33 3 1 17 -7 32 -18 14 -12 29 -18 34
-15 5 3 9 0 9 -6 0 -6 4 -9 9 -6 5 3 12 -1 15 -10 4 -9 9 -14 12 -11 10 9 66
-61 78 -98 7 -19 11 -52 9 -72 -2 -21 -4 -46 -4 -57 0 -10 -2 -16 -5 -14 -2 3
-19 -9 -37 -26 -18 -17 -51 -36 -73 -41 -69 -19 -191 -9 -262 21 -20 8 -39 15
-42 16 -3 0 -22 9 -42 19 -34 18 -37 18 -36 1 0 -24 -12 -114 -17 -123 -6 -8
28 -22 110 -45 61 -18 253 -25 305 -12 14 3 37 9 53 13 15 4 27 11 27 17 0 5
5 6 10 3 6 -3 10 -1 10 6 0 7 3 9 6 6 17 -17 120 84 128 125 2 7 7 22 12 33
10 23 10 125 0 170 -7 30 -53 115 -62 115 -3 0 -2 -5 2 -12 4 -7 3 -8 -4 -4
-7 4 -12 12 -12 17 0 12 -51 58 -64 59 -5 0 -17 6 -25 14 -9 8 -23 16 -31 18
-8 2 -21 9 -28 16 -8 7 -18 10 -23 7 -5 -4 -9 -2 -9 2 0 10 -100 56 -114 53
-5 -1 -13 5 -18 14 -5 9 -13 14 -19 11 -5 -4 -9 -2 -9 3 0 5 -13 15 -30 22
-16 7 -30 19 -30 26 0 8 -4 14 -9 14 -19 0 -40 66 -35 115 8 97 69 139 198
136 108 -2 126 -4 126 -13 0 -4 3 -7 8 -6 12 4 112 -35 112 -44 0 -4 4 -8 8
-8 5 0 9 15 10 33 1 17 4 43 7 57 9 45 -3 59 -73 81 -79 25 -253 33 -317 14z"/>
<path d="M9070 5554 c-153 -39 -277 -156 -331 -314 -28 -84 -33 -123 -33 -250
1 -105 4 -134 23 -200 20 -71 24 -80 32 -80 5 0 8 -3 7 -7 -4 -17 14 -53 24
-47 7 4 8 2 4 -5 -5 -7 3 -22 19 -37 14 -13 23 -24 19 -24 -4 0 12 -18 36 -39
25 -22 48 -37 52 -35 4 3 8 0 8 -6 0 -11 70 -46 105 -52 11 -1 23 -7 27 -12 7
-11 228 -13 271 -3 16 3 44 11 62 17 33 11 34 13 29 53 -3 23 -5 50 -5 59 0
10 -4 20 -10 23 -5 4 -9 1 -9 -5 0 -6 -3 -9 -7 -7 -5 3 -19 0 -33 -6 -14 -5
-32 -12 -40 -14 -27 -7 -175 -9 -190 -2 -8 4 -35 15 -60 25 -45 19 -140 102
-140 123 0 6 -4 11 -10 11 -5 0 -9 3 -8 8 1 4 -3 16 -9 28 -52 93 -64 299 -24
424 22 70 83 175 94 164 4 -4 7 -2 7 5 0 16 86 69 135 83 75 21 128 18 262
-15 7 -2 16 -6 19 -10 11 -11 21 -8 21 6 1 6 4 36 7 65 4 35 3 51 -4 47 -5 -3
-10 -1 -10 6 0 7 -3 9 -7 6 -3 -4 -11 -3 -17 2 -31 25 -237 35 -316 15z"/>
<path d="M2427 5536 c-6 -20 0 -700 7 -759 12 -100 72 -237 104 -237 7 0 10
-4 7 -10 -7 -11 61 -56 119 -77 48 -18 212 -25 264 -11 104 27 175 82 218 168
15 30 26 55 25 55 -1 0 2 13 8 28 21 53 24 114 25 483 l2 371 -68 0 -68 1 -1
-347 c-1 -190 -3 -359 -5 -376 -9 -84 -16 -110 -40 -160 -15 -30 -31 -52 -35
-49 -5 3 -9 -2 -9 -11 0 -9 -5 -13 -10 -10 -6 3 -13 0 -16 -8 -2 -7 -10 -14
-17 -14 -7 0 -30 -5 -52 -10 -88 -20 -180 -4 -228 40 -32 30 -85 107 -73 107
3 0 0 12 -6 28 -8 18 -12 151 -14 407 -2 209 -3 385 -3 391 -1 15 -129 14
-134 0z"/>
<path d="M3410 4999 l0 -548 68 1 67 1 0 419 c0 231 3 421 6 423 3 2 23 -30
45 -71 21 -41 43 -74 47 -74 5 0 6 -4 2 -9 -3 -5 0 -15 7 -23 7 -7 14 -20 16
-28 2 -8 8 -20 13 -26 14 -17 77 -134 95 -176 10 -23 21 -35 28 -31 6 3 8 3 4
-1 -6 -7 66 -156 92 -191 6 -8 61 -109 104 -190 9 -16 22 -20 73 -22 40 -1 63
2 65 10 4 10 3 1062 -1 1078 0 3 -30 6 -66 6 -64 1 -65 0 -66 -26 0 -14 0
-194 0 -398 0 -205 -3 -373 -7 -373 -4 0 -24 31 -43 70 -20 38 -38 68 -40 65
-3 -2 -6 5 -6 17 -1 12 -8 25 -15 29 -7 5 -13 12 -13 16 -1 16 -49 103 -57
103 -5 0 -7 4 -3 9 3 5 -2 16 -10 25 -9 8 -16 18 -16 20 -2 22 -13 46 -20 46
-5 0 -9 6 -9 14 0 7 -7 19 -15 26 -8 7 -12 16 -9 21 3 5 0 9 -5 9 -6 0 -10 3
-10 8 3 17 -2 30 -21 50 -12 12 -18 22 -15 22 3 0 -6 21 -21 48 -15 26 -42 76
-62 112 -19 36 -39 67 -43 68 -5 2 -7 7 -4 11 2 5 -31 8 -75 8 l-80 -1 0 -547z"/>
<path d="M4360 5506 c-1 -67 -1 -988 -1 -1022 l1 -32 229 2 c163 1 233 5 243
14 8 6 18 9 21 5 4 -3 7 -1 7 6 0 7 4 10 9 6 12 -7 81 30 99 53 6 9 12 12 12
7 0 -5 19 10 43 33 48 47 110 159 132 238 21 76 24 290 4 341 -5 13 -11 38
-14 56 -4 17 -9 34 -13 37 -4 3 -8 13 -10 23 -11 64 -128 189 -215 231 -32 15
-62 24 -67 21 -6 -3 -10 -2 -10 3 0 12 -2 13 -247 16 l-223 3 0 -41z m443
-100 c27 -10 57 -25 69 -34 44 -36 86 -81 80 -86 -3 -3 0 -6 6 -6 7 0 11 -3
10 -7 0 -5 7 -26 17 -48 10 -22 19 -49 20 -60 1 -11 3 -20 5 -20 8 0 13 -185
7 -250 -2 -17 -7 -36 -11 -43 -4 -8 -5 -16 -2 -19 3 -3 1 -11 -4 -18 -5 -6
-11 -20 -13 -31 -2 -10 -8 -29 -15 -40 -6 -12 -8 -25 -4 -29 4 -5 1 -5 -5 -1
-12 7 -18 -6 -13 -29 1 -5 -1 -7 -5 -3 -4 4 -20 -6 -35 -22 -25 -26 -80 -60
-105 -66 -5 -2 -21 -6 -35 -9 -26 -7 -247 -13 -265 -8 -6 2 -10 148 -9 416 1
226 2 417 3 422 2 17 249 10 304 -9z"/>
<path d="M5239 5538 c-1 -4 -1 -17 -1 -28 0 -11 0 -35 1 -53 l1 -34 138 1 137
1 -1 -486 -1 -486 66 0 66 0 5 486 5 485 135 0 136 0 -1 60 -1 61 -342 1
c-188 0 -342 -3 -343 -8z"/>
<path d="M6240 5539 c0 -5 0 -12 1 -15 0 -4 -3 -10 -8 -13 -11 -8 -49 -132
-45 -148 2 -7 -1 -13 -6 -13 -6 0 -13 -17 -18 -37 -8 -42 -8 -41 -17 -63 -8
-22 -37 -114 -42 -136 -2 -10 -21 -71 -40 -134 -20 -63 -38 -122 -40 -130 -2
-8 -10 -34 -19 -58 -8 -23 -16 -44 -16 -47 -1 -6 1 2 -43 -145 -19 -63 -38
-122 -41 -130 -6 -13 5 -16 69 -17 64 0 75 2 75 16 0 9 4 21 10 27 5 5 11 23
13 40 2 16 6 35 10 40 11 19 45 152 40 158 -13 12 62 19 207 19 151 0 155 0
158 -21 2 -12 8 -22 13 -22 6 0 8 -4 5 -9 -3 -5 1 -28 10 -52 9 -24 17 -51 18
-59 1 -8 10 -42 20 -76 l18 -61 71 1 c40 1 71 4 69 8 -1 5 -5 21 -8 38 -4 16
-11 30 -16 30 -5 0 -7 4 -4 9 4 5 1 22 -5 38 -7 15 -13 33 -13 38 -1 6 -10 37
-20 70 -11 33 -19 63 -18 68 1 4 -3 7 -9 7 -5 0 -8 4 -5 9 5 7 -10 65 -31 121
-3 8 -7 20 -8 25 -11 45 -39 132 -45 140 -5 6 -8 13 -9 18 -1 29 -15 77 -21
77 -5 0 -6 10 -2 22 4 16 2 19 -8 13 -8 -5 -11 -4 -6 3 3 6 1 23 -5 39 -6 15
-13 39 -16 53 -2 14 -8 27 -14 28 -5 2 -7 7 -4 11 2 5 -9 50 -26 102 -17 52
-32 101 -33 109 -2 11 -20 15 -74 17 -40 1 -72 -2 -72 -8z m85 -241 c4 -13 7
-26 6 -30 0 -4 4 -20 10 -35 6 -15 12 -35 14 -43 2 -8 18 -62 35 -120 18 -58
33 -113 35 -123 2 -9 7 -22 10 -27 3 -5 8 -18 10 -27 3 -16 -8 -18 -126 -17
-71 0 -132 3 -135 7 -4 4 -1 28 7 54 7 26 14 50 14 53 1 3 9 31 19 64 10 32
19 64 20 70 1 6 4 16 8 21 3 6 9 26 14 45 4 19 8 37 9 40 9 37 30 90 35 90 4
0 11 -10 15 -22z"/>
<path d="M7558 5546 c0 -1 -2 -29 -3 -62 l-2 -62 129 2 c72 1 133 -1 137 -4 4
-3 8 -221 7 -485 l0 -480 70 -2 69 -2 0 487 0 487 135 0 135 0 0 60 0 60 -337
1 c-186 0 -339 0 -340 0z"/>
<path d="M8394 5000 l0 -548 65 2 66 1 1 546 1 546 -67 0 -66 0 0 -547z"/>
</g>
</svg>
